<svg width="1130" height="131" viewBox="0 0 1130 131" fill="none" xmlns="http://www.w3.org/2000/svg">
<path d="M50.215 97.322C44.711 97.322 39.508 96.333 34.606 94.355L28.93 102.353C34.52 103.729 40.884 105.191 48.022 106.739C55.246 108.373 62.341 109.921 69.307 111.383C72.661 112.071 75.155 112.372 76.789 112.286C78.509 112.286 80.057 111.856 81.433 110.996L84.916 108.803L85.948 110.222L79.369 117.317C77.477 119.295 75.628 120.886 73.822 122.09C72.016 123.38 69.995 124.025 67.759 124.025C65.953 124.025 63.373 123.724 60.019 123.122C56.665 122.606 52.924 121.918 48.796 121.058C44.668 120.284 40.54 119.424 36.412 118.478C32.284 117.618 28.543 116.844 25.189 116.156C23.813 115.812 22.566 115.726 21.448 115.898C20.33 116.156 19.255 116.844 18.223 117.962L16.675 119.51L15.127 118.349L31.381 92.807C25.103 89.625 19.9 84.68 15.772 77.972C11.644 71.178 9.58 62.664 9.58 52.43C9.58 45.034 10.698 38.541 12.934 32.951C15.17 27.361 18.223 22.717 22.093 19.019C25.963 15.235 30.306 12.397 35.122 10.505C40.024 8.527 45.055 7.538 50.215 7.538C55.461 7.538 60.492 8.484 65.308 10.376C70.21 12.182 74.553 14.977 78.337 18.761C82.207 22.459 85.26 27.146 87.496 32.822C89.732 38.412 90.85 44.948 90.85 52.43C90.85 59.74 89.732 66.233 87.496 71.909C85.26 77.499 82.207 82.186 78.337 85.97C74.553 89.668 70.21 92.506 65.308 94.484C60.492 96.376 55.461 97.322 50.215 97.322ZM50.215 94.613C54.945 94.613 58.772 93.366 61.696 90.872C64.62 88.292 66.727 83.949 68.017 77.843C69.393 71.651 70.081 63.18 70.081 52.43C70.081 41.594 69.393 33.123 68.017 27.017C66.727 20.825 64.62 16.482 61.696 13.988C58.772 11.408 54.945 10.118 50.215 10.118C45.571 10.118 41.787 11.408 38.863 13.988C35.939 16.482 33.789 20.825 32.413 27.017C31.123 33.123 30.478 41.594 30.478 52.43C30.478 63.18 31.123 71.651 32.413 77.843C33.789 83.949 35.939 88.292 38.863 90.872C41.787 93.366 45.571 94.613 50.215 94.613ZM119.349 96.935C115.995 96.935 112.899 96.29 110.061 95C107.309 93.71 105.116 91.646 103.482 88.808C101.934 85.884 101.203 82.057 101.289 77.327L101.676 44.174C101.676 42.196 101.332 40.777 100.644 39.917C99.9559 39.057 98.8809 38.455 97.4189 38.111L95.8709 37.595V36.305L118.962 31.79L120.252 33.08L119.607 51.398V82.487C119.607 85.239 120.381 87.26 121.929 88.55C123.563 89.84 125.584 90.485 127.992 90.485C130.4 90.485 132.55 90.141 134.442 89.453C136.334 88.765 138.226 87.733 140.118 86.357L140.634 44.303C140.634 42.325 140.333 40.949 139.731 40.175C139.129 39.315 138.011 38.713 136.377 38.369L135.087 37.982V36.692L157.662 31.79L158.952 33.08L158.565 51.398V86.357C158.565 88.249 158.823 89.711 159.339 90.743C159.855 91.775 160.973 92.635 162.693 93.323L163.983 93.71V95L141.408 96.29L140.247 88.679C137.409 91.001 134.313 92.979 130.959 94.613C127.691 96.161 123.821 96.935 119.349 96.935ZM184.672 24.308C181.748 24.308 179.254 23.405 177.19 21.599C175.212 19.707 174.223 17.342 174.223 14.504C174.223 11.58 175.212 9.21499 177.19 7.409C179.254 5.603 181.748 4.69999 184.672 4.69999C187.596 4.69999 190.047 5.603 192.025 7.409C194.003 9.21499 194.992 11.58 194.992 14.504C194.992 17.342 194.003 19.707 192.025 21.599C190.047 23.405 187.596 24.308 184.672 24.308ZM169.45 95V93.71L171.256 93.194C172.976 92.678 174.137 91.904 174.739 90.872C175.427 89.84 175.771 88.464 175.771 86.744V46.367C175.771 44.561 175.427 43.228 174.739 42.368C174.137 41.422 172.976 40.777 171.256 40.433L169.45 40.046V38.756L193.057 31.145L194.347 32.435L193.96 50.753V86.873C193.96 88.593 194.261 89.969 194.863 91.001C195.551 92.033 196.712 92.807 198.346 93.323L199.636 93.71V95H169.45ZM227.665 96.935C223.451 96.935 219.667 96.419 216.313 95.387C212.959 94.441 209.863 93.237 207.025 91.775L207.154 76.424H208.444L212.83 84.164C214.722 87.604 216.786 90.184 219.022 91.904C221.344 93.538 224.268 94.355 227.794 94.355C231.922 94.355 235.233 93.452 237.727 91.646C240.307 89.754 241.597 87.26 241.597 84.164C241.597 81.326 240.694 79.004 238.888 77.198C237.082 75.392 233.728 73.758 228.826 72.296L223.408 70.619C218.162 69.071 214.034 66.663 211.024 63.395C208.014 60.127 206.509 56.128 206.509 51.398C206.509 45.722 208.745 40.906 213.217 36.95C217.689 32.994 224.096 31.016 232.438 31.016C235.792 31.016 238.931 31.403 241.855 32.177C244.865 32.865 247.746 33.94 250.498 35.402L249.724 49.334H248.434L243.919 41.336C242.285 38.498 240.651 36.52 239.017 35.402C237.469 34.198 235.104 33.596 231.922 33.596C228.998 33.596 226.246 34.413 223.666 36.047C221.086 37.681 219.796 40.003 219.796 43.013C219.796 45.937 220.871 48.259 223.021 49.979C225.257 51.699 228.525 53.29 232.825 54.752L238.63 56.429C244.822 58.321 249.251 60.944 251.917 64.298C254.583 67.566 255.916 71.522 255.916 76.166C255.916 82.444 253.422 87.475 248.434 91.259C243.532 95.043 236.609 96.935 227.665 96.935ZM299.201 124.67V123.38L301.91 122.735C305.178 121.789 306.812 119.639 306.812 116.285V90.614C304.318 92.506 301.437 94.011 298.169 95.129C294.987 96.333 291.418 96.935 287.462 96.935C280.152 96.935 274.089 94.183 269.273 88.679C264.457 83.175 262.049 75.177 262.049 64.685C262.049 57.461 263.253 51.355 265.661 46.367C268.069 41.379 271.38 37.595 275.594 35.015C279.894 32.349 284.839 31.016 290.429 31.016C294.213 31.016 297.653 31.575 300.749 32.693C303.931 33.811 306.726 35.23 309.134 36.95L323.84 31.016L325.13 32.306L324.743 49.721V116.672C324.743 120.198 326.291 122.305 329.387 122.993L330.548 123.38V124.67H299.201ZM295.976 91.775C299.588 91.775 303.071 90.399 306.425 87.647V38.627C304.963 37.681 303.458 36.993 301.91 36.563C300.362 36.133 298.513 35.918 296.363 35.918C291.805 35.918 288.193 38.154 285.527 42.626C282.861 47.012 281.528 54.279 281.528 64.427C281.528 74.317 282.818 81.369 285.398 85.583C287.978 89.711 291.504 91.775 295.976 91.775ZM357.445 96.935C354.091 96.935 350.995 96.29 348.157 95C345.405 93.71 343.212 91.646 341.578 88.808C340.03 85.884 339.299 82.057 339.385 77.327L339.772 44.174C339.772 42.196 339.428 40.777 338.74 39.917C338.052 39.057 336.977 38.455 335.515 38.111L333.967 37.595V36.305L357.058 31.79L358.348 33.08L357.703 51.398V82.487C357.703 85.239 358.477 87.26 360.025 88.55C361.659 89.84 363.68 90.485 366.088 90.485C368.496 90.485 370.646 90.141 372.538 89.453C374.43 88.765 376.322 87.733 378.214 86.357L378.73 44.303C378.73 42.325 378.429 40.949 377.827 40.175C377.225 39.315 376.107 38.713 374.473 38.369L373.183 37.982V36.692L395.758 31.79L397.048 33.08L396.661 51.398V86.357C396.661 88.249 396.919 89.711 397.435 90.743C397.951 91.775 399.069 92.635 400.789 93.323L402.079 93.71V95L379.504 96.29L378.343 88.679C375.505 91.001 372.409 92.979 369.055 94.613C365.787 96.161 361.917 96.935 357.445 96.935ZM439.163 31.016C444.753 31.016 449.526 32.177 453.482 34.499C457.438 36.735 460.448 39.831 462.512 43.787C464.662 47.657 465.737 52.086 465.737 57.074C465.737 58.02 465.694 59.009 465.608 60.041C465.522 60.987 465.35 61.847 465.092 62.621H426.65C426.736 71.909 428.37 78.617 431.552 82.745C434.82 86.787 439.636 88.808 446 88.808C450.3 88.808 453.783 88.12 456.449 86.744C459.115 85.368 461.609 83.347 463.931 80.681L465.221 81.842C462.555 86.572 458.986 90.27 454.514 92.936C450.128 95.602 444.839 96.935 438.647 96.935C432.541 96.935 427.123 95.645 422.393 93.065C417.663 90.399 413.965 86.615 411.299 81.713C408.633 76.811 407.3 70.963 407.3 64.169C407.3 57.117 408.848 51.14 411.944 46.238C415.04 41.25 418.996 37.466 423.812 34.886C428.714 32.306 433.831 31.016 439.163 31.016ZM438.776 33.596C436.282 33.596 434.132 34.37 432.326 35.918C430.606 37.38 429.23 40.046 428.198 43.916C427.252 47.7 426.736 53.075 426.65 60.041H448.709C449.569 50.667 449.225 43.916 447.677 39.788C446.129 35.66 443.162 33.596 438.776 33.596ZM483.53 125.96C480.09 125.96 477.338 125.1 475.274 123.38C473.296 121.66 472.307 119.467 472.307 116.801C472.307 114.393 473.167 112.458 474.887 110.996C476.607 109.534 478.542 108.803 480.692 108.803C482.842 108.803 484.648 109.233 486.11 110.093C487.572 111.039 488.862 112.372 489.98 114.092L490.883 115.124C492.775 117.704 494.667 117.661 496.559 114.995C497.333 113.705 498.193 111.985 499.139 109.835C500.171 107.771 501.332 104.976 502.622 101.45L477.596 41.594C476.994 39.96 476.349 38.67 475.661 37.724C474.973 36.692 473.855 35.832 472.307 35.144L469.985 34.241V32.951H502.106V34.112L499.526 35.144C497.634 35.746 496.645 36.735 496.559 38.111C496.559 39.401 496.903 41.035 497.591 43.013L511.007 77.843L523.778 42.626C524.466 40.648 524.724 39.014 524.552 37.724C524.38 36.348 523.305 35.402 521.327 34.886L518.618 34.241V32.951H536.549V34.241L533.711 35.144C531.733 35.746 530.357 36.606 529.583 37.724C528.809 38.842 528.078 40.39 527.39 42.368L506.621 98.999C503.267 108.029 499.913 114.78 496.559 119.252C493.205 123.724 488.862 125.96 483.53 125.96ZM556.634 96.935C551.646 96.935 547.432 95.516 543.992 92.678C540.638 89.84 538.961 85.755 538.961 80.423C538.961 76.381 541.025 72.683 545.153 69.329C549.281 65.889 555.774 63.309 564.632 61.589C566.008 61.331 567.556 61.073 569.276 60.815C570.996 60.471 572.802 60.127 574.694 59.783V49.592C574.694 43.744 573.963 39.659 572.501 37.337C571.125 34.929 568.932 33.725 565.922 33.725C563.858 33.725 562.224 34.413 561.02 35.789C559.816 37.079 559.042 39.358 558.698 42.626L558.44 44.045C558.268 47.743 557.365 50.452 555.731 52.172C554.097 53.892 552.076 54.752 549.668 54.752C547.432 54.752 545.583 54.064 544.121 52.688C542.659 51.312 541.928 49.463 541.928 47.141C541.928 43.615 543.132 40.648 545.54 38.24C548.034 35.832 551.302 34.026 555.344 32.822C559.386 31.618 563.772 31.016 568.502 31.016C576.156 31.016 582.047 32.908 586.175 36.692C590.389 40.39 592.496 46.453 592.496 54.881V83.39C592.496 87.26 594.302 89.195 597.914 89.195H600.752L601.913 90.227C600.279 92.291 598.473 93.882 596.495 95C594.603 96.118 591.894 96.677 588.368 96.677C584.584 96.677 581.574 95.817 579.338 94.097C577.188 92.291 575.769 89.926 575.081 87.002C572.501 89.754 569.835 92.119 567.083 94.097C564.417 95.989 560.934 96.935 556.634 96.935ZM564.503 89.066C566.223 89.066 567.814 88.679 569.276 87.905C570.824 87.045 572.63 85.755 574.694 84.035V62.363C573.834 62.535 572.974 62.707 572.114 62.879C571.254 63.051 570.265 63.223 569.147 63.395C565.191 64.427 562.009 66.19 559.601 68.684C557.279 71.092 556.118 74.36 556.118 78.488C556.118 82.014 556.935 84.68 558.569 86.486C560.203 88.206 562.181 89.066 564.503 89.066ZM634.595 95V93.71L638.852 92.42C640.4 91.99 641.518 91.173 642.206 89.969C642.894 88.679 643.238 87.174 643.238 85.454V23.405C642.292 21.341 641.518 19.793 640.916 18.761C640.4 17.729 639.798 16.869 639.11 16.181C638.422 15.407 637.476 14.461 636.272 13.343L634.079 11.15V9.86H656.912L699.74 68.297V19.664C699.74 17.944 699.439 16.396 698.837 15.02C698.321 13.644 697.203 12.741 695.483 12.311L691.226 11.15V9.86H709.673V11.15L706.19 12.311C704.642 12.827 703.696 13.73 703.352 15.02C703.008 16.31 702.836 17.815 702.836 19.535V95.387H695.612L646.334 27.662V85.454C646.334 87.174 646.592 88.636 647.108 89.84C647.624 91.044 648.699 91.904 650.333 92.42L654.203 93.71V95H634.595ZM745.16 31.016C750.75 31.016 755.523 32.177 759.479 34.499C763.435 36.735 766.445 39.831 768.509 43.787C770.659 47.657 771.734 52.086 771.734 57.074C771.734 58.02 771.691 59.009 771.605 60.041C771.519 60.987 771.347 61.847 771.089 62.621H732.647C732.733 71.909 734.367 78.617 737.549 82.745C740.817 86.787 745.633 88.808 751.997 88.808C756.297 88.808 759.78 88.12 762.446 86.744C765.112 85.368 767.606 83.347 769.928 80.681L771.218 81.842C768.552 86.572 764.983 90.27 760.511 92.936C756.125 95.602 750.836 96.935 744.644 96.935C738.538 96.935 733.12 95.645 728.39 93.065C723.66 90.399 719.962 86.615 717.296 81.713C714.63 76.811 713.297 70.963 713.297 64.169C713.297 57.117 714.845 51.14 717.941 46.238C721.037 41.25 724.993 37.466 729.809 34.886C734.711 32.306 739.828 31.016 745.16 31.016ZM744.773 33.596C742.279 33.596 740.129 34.37 738.323 35.918C736.603 37.38 735.227 40.046 734.195 43.916C733.249 47.7 732.733 53.075 732.647 60.041H754.706C755.566 50.667 755.222 43.916 753.674 39.788C752.126 35.66 749.159 33.596 744.773 33.596ZM802.673 96.935C797.169 96.935 792.869 95.559 789.773 92.807C786.763 90.055 785.258 85.669 785.258 79.649V35.531H776.357V34.241L779.453 33.725C782.119 33.123 784.398 32.263 786.29 31.145C788.268 30.027 790.203 28.522 792.095 26.63L802.673 14.891H803.963L803.576 32.951H818.024V35.531H803.447V81.971C803.447 84.981 804.092 87.26 805.382 88.808C806.758 90.356 808.478 91.13 810.542 91.13C812.348 91.13 813.939 90.7 815.315 89.84C816.691 88.894 818.067 87.647 819.443 86.099L820.733 87.389C819.013 90.313 816.648 92.635 813.638 94.355C810.628 96.075 806.973 96.935 802.673 96.935ZM852.101 95.387L832.235 40.82C831.289 38.068 829.397 36.133 826.559 35.015L824.366 34.241V32.951H855.971V34.241L854.036 34.757C850.682 35.789 849.564 37.853 850.682 40.949L862.679 77.456L873.386 49.076L870.935 41.723C870.333 39.831 869.688 38.412 869 37.466C868.398 36.434 867.581 35.703 866.549 35.273L864.356 34.241V32.951H891.059V34.241L889.253 35.015C887.963 35.531 887.189 36.219 886.931 37.079C886.673 37.939 886.845 39.229 887.447 40.949L899.315 76.811L911.57 41.207C912.774 37.939 912.129 35.875 909.635 35.015L906.797 34.241V32.951H922.277V34.241L919.181 35.144C917.719 35.574 916.644 36.262 915.956 37.208C915.354 38.068 914.795 39.272 914.279 40.82L895.703 95.387H889.124L874.805 53.204L859.583 95.387H852.101ZM955.673 96.935C949.137 96.935 943.461 95.602 938.645 92.936C933.829 90.184 930.088 86.314 927.422 81.326C924.842 76.338 923.552 70.49 923.552 63.782C923.552 57.074 924.928 51.269 927.68 46.367C930.518 41.465 934.345 37.681 939.161 35.015C944.063 32.349 949.567 31.016 955.673 31.016C961.779 31.016 967.24 32.349 972.056 35.015C976.872 37.595 980.656 41.336 983.408 46.238C986.246 51.14 987.665 56.988 987.665 63.782C987.665 70.576 986.332 76.467 983.666 81.455C981.086 86.357 977.388 90.184 972.572 92.936C967.842 95.602 962.209 96.935 955.673 96.935ZM955.673 94.355C958.683 94.355 961.091 93.495 962.897 91.775C964.703 90.055 965.993 87.002 966.767 82.616C967.627 78.23 968.057 72.038 968.057 64.04C968.057 55.956 967.627 49.721 966.767 45.335C965.993 40.949 964.703 37.896 962.897 36.176C961.091 34.456 958.683 33.596 955.673 33.596C952.663 33.596 950.212 34.456 948.32 36.176C946.514 37.896 945.181 40.949 944.321 45.335C943.547 49.721 943.16 55.956 943.16 64.04C943.16 72.038 943.547 78.23 944.321 82.616C945.181 87.002 946.514 90.055 948.32 91.775C950.212 93.495 952.663 94.355 955.673 94.355ZM993.331 95V93.71L995.266 93.194C996.986 92.678 998.147 91.904 998.749 90.872C999.437 89.84 999.781 88.507 999.781 86.873V46.496C999.781 44.604 999.437 43.228 998.749 42.368C998.147 41.422 996.986 40.777 995.266 40.433L993.331 39.917V38.627L1015.52 31.145L1016.81 32.435L1017.97 43.529V44.561C1019.17 42.153 1020.72 39.96 1022.61 37.982C1024.59 35.918 1026.74 34.241 1029.06 32.951C1031.47 31.661 1033.84 31.016 1036.16 31.016C1039.43 31.016 1041.92 31.919 1043.64 33.725C1045.36 35.531 1046.22 37.81 1046.22 40.562C1046.22 43.486 1045.36 45.765 1043.64 47.399C1042.01 48.947 1040.03 49.721 1037.71 49.721C1034.09 49.721 1030.91 47.915 1028.16 44.303L1027.9 44.045C1027.04 42.841 1026.05 42.196 1024.94 42.11C1023.82 41.938 1022.79 42.454 1021.84 43.658C1020.98 44.432 1020.25 45.378 1019.65 46.496C1019.13 47.528 1018.61 48.732 1018.1 50.108V86.099C1018.1 89.539 1019.6 91.689 1022.61 92.549L1026.74 93.71V95H993.331ZM1047.76 95V93.71L1049.69 93.065C1052.62 92.119 1054.08 90.012 1054.08 86.744V17.729C1054.08 16.009 1053.74 14.719 1053.05 13.859C1052.36 12.999 1051.16 12.311 1049.44 11.795L1047.76 11.408V10.118L1071.37 4.571L1072.91 5.732L1072.53 23.792V86.744C1072.53 90.184 1073.95 92.334 1076.78 93.194L1078.59 93.71V95H1047.76ZM1095.62 95L1072.66 62.75L1096.52 40.691C1097.64 39.659 1098.28 38.584 1098.46 37.466C1098.71 36.262 1097.98 35.402 1096.26 34.886L1094.07 34.241V32.951H1113.29V34.241L1109.42 35.273C1107.53 35.875 1105.98 36.606 1104.78 37.466C1103.66 38.24 1102.28 39.358 1100.65 40.82L1086.2 54.365L1109.29 86.486C1110.67 88.378 1111.96 89.84 1113.16 90.872C1114.37 91.904 1115.91 92.764 1117.81 93.452L1118.32 93.71V95H1095.62Z" fill="white"/>
</svg>
